<?xml version="1.0" encoding="UTF-8"?>
<svg width="512" height="512" viewBox="0 0 512 512" xmlns="http://www.w3.org/2000/svg">
  <defs>
    <!-- Gradient for comic book -->
    <linearGradient id="comicGrad" x1="0%" y1="0%" x2="100%" y2="100%">
      <stop offset="0%" style="stop-color:#FF6B6B;stop-opacity:1" />
      <stop offset="50%" style="stop-color:#4ECDC4;stop-opacity:1" />
      <stop offset="100%" style="stop-color:#45B7D1;stop-opacity:1" />
    </linearGradient>
    
    <!-- Shadow filter -->
    <filter id="dropshadow" x="-20%" y="-20%" width="140%" height="140%">
      <feDropShadow dx="4" dy="4" stdDeviation="8" flood-color="#000000" flood-opacity="0.3"/>
    </filter>
  </defs>
  
  <!-- Background circle -->
  <circle cx="256" cy="256" r="240" fill="#F8F9FA" stroke="#E9ECEF" stroke-width="8"/>
  
  <!-- Main comic book -->
  <rect x="140" y="120" width="180" height="240" rx="12" ry="12" 
        fill="url(#comicGrad)" 
        filter="url(#dropshadow)"
        stroke="#2C3E50" stroke-width="3"/>
  
  <!-- Comic book spine -->
  <rect x="140" y="120" width="20" height="240" rx="12" ry="12" 
        fill="#2C3E50" opacity="0.8"/>
  
  <!-- Comic book pages effect -->
  <rect x="160" y="130" width="150" height="220" rx="8" ry="8" 
        fill="#FFFFFF" opacity="0.9"/>
  <rect x="170" y="140" width="130" height="200" rx="6" ry="6" 
        fill="#F1F3F4" stroke="#BDC3C7" stroke-width="1"/>
  
  <!-- Comic panels/frames -->
  <rect x="180" y="160" width="50" height="40" rx="3" ry="3" 
        fill="#FFE66D" stroke="#FF6B6B" stroke-width="2"/>
  <rect x="240" y="160" width="50" height="40" rx="3" ry="3" 
        fill="#A8E6CF" stroke="#4ECDC4" stroke-width="2"/>
  <rect x="180" y="210" width="110" height="30" rx="3" ry="3" 
        fill="#FFB3B3" stroke="#FF6B6B" stroke-width="2"/>
  <rect x="180" y="250" width="110" height="40" rx="3" ry="3" 
        fill="#B3D9FF" stroke="#45B7D1" stroke-width="2"/>
  
  <!-- Speech bubble -->
  <ellipse cx="220" cy="180" rx="15" ry="10" fill="#FFFFFF" stroke="#2C3E50" stroke-width="2"/>
  <polygon points="212,186 218,194 208,190" fill="#FFFFFF" stroke="#2C3E50" stroke-width="2"/>
  
  <!-- Rename/Edit tag -->
  <rect x="320" y="200" width="80" height="40" rx="20" ry="20" 
        fill="#28A745" 
        filter="url(#dropshadow)"
        stroke="#1E7E34" stroke-width="2"/>
  
  <!-- Pencil/edit icon in tag -->
  <path d="M340 210 L360 210 L355 230 L345 230 Z" 
        fill="#FFFFFF" stroke="#1E7E34" stroke-width="1"/>
  <circle cx="365" cy="215" r="6" fill="#FFFFFF" stroke="#1E7E34" stroke-width="1"/>
  
  <!-- Text in tag -->
  <text x="350" y="226" font-family="Arial, sans-serif" font-size="10" fill="#FFFFFF" text-anchor="middle">ABC</text>
  
  <!-- Folder base (subtle) -->
  <path d="M100 320 L120 300 L200 300 L220 320 L420 320 L420 400 L100 400 Z" 
        fill="#FFC107" opacity="0.6" 
        stroke="#F57C00" stroke-width="2"/>
  
  <!-- Files organization indicator -->
  <rect x="120" y="340" width="60" height="8" rx="4" ry="4" fill="#6C757D" opacity="0.5"/>
  <rect x="120" y="355" width="80" height="8" rx="4" ry="4" fill="#6C757D" opacity="0.5"/>
  <rect x="120" y="370" width="40" height="8" rx="4" ry="4" fill="#6C757D" opacity="0.5"/>
  
  <!-- Arrow indicating transformation -->
  <path d="M360 280 Q380 260 400 280" stroke="#28A745" stroke-width="4" fill="none" marker-end="url(#arrowhead)"/>
  
  <!-- Arrow marker -->
  <defs>
    <marker id="arrowhead" markerWidth="10" markerHeight="7" 
            refX="9" refY="3.5" orient="auto">
      <polygon points="0 0, 10 3.5, 0 7" fill="#28A745"/>
    </marker>
  </defs>
</svg>