<?xml version="1.0" encoding="UTF-8"?>
<svg width="512" height="512" viewBox="0 0 512 512" xmlns="http://www.w3.org/2000/svg">
  <!-- Folder-based concept -->
  <circle cx="256" cy="256" r="240" fill="#F5F5F5" stroke="#BDBDBD" stroke-width="4"/>
  
  <!-- Folder -->
  <path d="M120 200 L140 180 L200 180 L220 200 L380 200 L380 340 L120 340 Z" 
        fill="#FFC107" stroke="#FF8F00" stroke-width="3"/>
  
  <!-- Comics coming out of folder -->
  <rect x="140" y="160" width="40" height="60" rx="4" fill="#E91E63" transform="rotate(-10 160 190)"/>
  <rect x="180" y="150" width="40" height="60" rx="4" fill="#3F51B5" transform="rotate(5 200 180)"/>
  <rect x="220" y="155" width="40" height="60" rx="4" fill="#4CAF50" transform="rotate(15 240 185)"/>
  
  <!-- Organization arrows -->
  <path d="M300 240 L340 240" stroke="#FF5722" stroke-width="6" marker-end="url(#arrow)"/>
  <path d="M300 260 L340 260" stroke="#FF5722" stroke-width="6" marker-end="url(#arrow)"/>
  <path d="M300 280 L340 280" stroke="#FF5722" stroke-width="6" marker-end="url(#arrow)"/>
  
  <defs>
    <marker id="arrow" viewBox="0 0 10 10" refX="9" refY="3" markerWidth="6" markerHeight="6" orient="auto">
      <path d="M0,0 L0,6 L9,3 z" fill="#FF5722"/>
    </marker>
  </defs>
</svg>